<svg width="966" height="272" viewBox="0 0 966 272" fill="none" xmlns="http://www.w3.org/2000/svg">
<path d="M399.79 102C393.056 95.1122 384.422 90.3871 374.99 88.428C365.558 86.4689 355.757 87.3646 346.836 91.0008C337.916 94.637 330.281 100.849 324.907 108.843C319.533 116.838 316.662 126.252 316.662 135.885C316.662 145.518 319.533 154.933 324.907 162.927C330.281 170.921 337.916 177.133 346.836 180.769C355.757 184.405 365.558 185.301 374.99 183.342C384.422 181.383 393.056 176.658 399.79 169.77V184.35H413.63V87.4201H399.79V102ZM365.17 170.5C358.323 170.5 351.629 168.47 345.936 164.666C340.243 160.861 335.806 155.455 333.185 149.129C330.565 142.803 329.879 135.842 331.215 129.126C332.551 122.41 335.848 116.242 340.69 111.4C345.532 106.558 351.7 103.261 358.416 101.925C365.132 100.589 372.092 101.275 378.418 103.895C384.744 106.516 390.151 110.953 393.955 116.646C397.76 122.339 399.79 129.033 399.79 135.88C399.779 145.059 396.128 153.858 389.638 160.348C383.148 166.839 374.348 170.489 365.17 170.5V170.5Z" fill="white"/>
<path d="M835.978 95.0858C829.467 89.3112 821.544 85.3226 812.983 83.5443C803.259 81.5246 793.154 82.448 783.958 86.1967C774.761 89.9454 766.891 96.3494 761.35 104.591C755.809 112.833 752.85 122.539 752.85 132.47C752.85 142.401 755.809 152.107 761.35 160.349C766.891 168.591 774.761 174.995 783.958 178.743C793.154 182.492 803.259 183.415 812.983 181.396C821.544 179.617 829.467 175.629 835.978 169.854V180.935V182.435H837.478H851.318H852.818V180.935V84.005V82.505H851.318H837.478H835.978V84.005V95.0858ZM830.396 114.065C834.035 119.511 835.977 125.913 835.978 132.463C835.968 141.245 832.475 149.663 826.265 155.873C820.056 162.082 811.637 165.575 802.856 165.585C796.306 165.585 789.903 163.642 784.457 160.003C779.011 156.364 774.766 151.191 772.259 145.14C769.752 139.088 769.096 132.428 770.374 126.004C771.652 119.579 774.806 113.678 779.438 109.046C784.07 104.414 789.972 101.259 796.396 99.9814C802.821 98.7035 809.48 99.3594 815.532 101.866C821.584 104.373 826.757 108.618 830.396 114.065Z" fill="white" stroke="white" stroke-width="3"/>
<path d="M715.95 87.42H702.1V184.35H715.95V87.42Z" fill="white"/>
<path d="M715.95 61.42H702.1V78.19H715.95V61.42Z" fill="white"/>
<path d="M621.31 87.4199C614.859 87.4133 608.473 88.7001 602.528 91.2044C596.584 93.7087 591.201 97.3796 586.7 102V87.4199H572.87V230.5H586.72V169.77C592.311 175.478 599.226 179.716 606.851 182.104C614.476 184.493 622.573 184.959 630.421 183.46C638.269 181.962 645.625 178.546 651.834 173.516C658.042 168.486 662.91 161.999 666.004 154.633C669.099 147.266 670.323 139.249 669.568 131.294C668.814 123.34 666.104 115.696 661.679 109.042C657.255 102.389 651.254 96.9329 644.211 93.1604C637.167 89.3879 629.3 87.4158 621.31 87.4199V87.4199ZM621.31 170.5C614.463 170.5 607.769 168.47 602.076 164.665C596.383 160.861 591.946 155.454 589.325 149.128C586.705 142.802 586.019 135.842 587.355 129.126C588.691 122.41 591.988 116.242 596.83 111.4C601.672 106.558 607.84 103.261 614.556 101.925C621.272 100.589 628.232 101.275 634.558 103.895C640.884 106.516 646.291 110.953 650.095 116.646C653.9 122.339 655.93 129.033 655.93 135.88C655.922 145.059 652.272 153.86 645.781 160.351C639.29 166.842 630.489 170.492 621.31 170.5V170.5Z" fill="white"/>
<path d="M881.147 170.007V181.08V182.58H879.647H865.818H864.318V181.08V38V36.5H865.818H879.667H881.167V38V95.2346C886.426 90.5771 892.619 87.0723 899.348 84.9642C907.209 82.5016 915.556 82.0214 923.647 83.5662C931.738 85.111 939.321 88.633 945.721 93.8183C952.122 99.0037 957.14 105.692 960.33 113.286C963.52 120.881 964.782 129.147 964.004 137.347C963.226 145.548 960.433 153.429 955.872 160.288C951.31 167.148 945.124 172.772 937.863 176.662C930.602 180.551 922.492 182.584 914.256 182.58C907.605 182.587 901.021 181.26 894.892 178.678C889.859 176.557 885.216 173.626 881.147 170.007ZM914.254 99.5C907.704 99.5002 901.302 101.443 895.856 105.082C890.409 108.721 886.165 113.894 883.658 119.945C881.151 125.997 880.495 132.657 881.773 139.081C883.051 145.506 886.205 151.407 890.837 156.039C895.469 160.671 901.37 163.826 907.794 165.104C914.218 166.381 920.877 165.726 926.929 163.219C932.98 160.712 938.153 156.467 941.792 151.02C945.431 145.574 947.373 139.17 947.373 132.62C947.365 123.838 943.874 115.419 937.664 109.209C931.455 103 923.035 99.5076 914.254 99.5Z" fill="white" stroke="white" stroke-width="3"/>
<path d="M691.72 41.26H677.87V184.34H691.72V41.26Z" fill="white"/>
<path d="M726 36.5H724.5V38V181.08V182.58H726H739.85H741.35V181.08V38V36.5H739.85H726Z" fill="white" stroke="white" stroke-width="3"/>
<path d="M524.41 82.81C518.292 82.8142 512.266 84.2933 506.842 87.1221C501.417 89.9509 496.755 94.046 493.25 99.06C488.629 92.3936 481.996 87.3808 474.321 84.7549C466.647 82.129 458.333 82.0278 450.597 84.4662C442.86 86.9045 436.107 91.7544 431.325 98.3064C426.543 104.858 423.983 112.769 424.02 120.88V184.35H437.86V120.88C437.989 114.538 440.599 108.499 445.13 104.059C449.661 99.6191 455.751 97.1323 462.095 97.1323C468.439 97.1323 474.529 99.6191 479.06 104.059C483.591 108.499 486.201 114.538 486.33 120.88V184.35H500.17V120.88C500.299 114.538 502.909 108.499 507.44 104.059C511.971 99.6191 518.061 97.1323 524.405 97.1323C530.749 97.1323 536.839 99.6191 541.37 104.059C545.901 108.499 548.511 114.538 548.64 120.88V184.35H562.48V120.88C562.467 110.787 558.452 101.112 551.315 93.975C544.178 86.8384 534.503 82.8232 524.41 82.81V82.81Z" fill="white"/>
<path d="M274.85 92.9C275.267 89.5127 275.478 86.103 275.48 82.69C275.455 60.89 266.828 39.9807 251.474 24.505C236.12 9.02931 215.279 0.237592 193.48 0.0400238C192.67 0.0400238 191.86 0.0400238 191.05 0.0400238H190.82C170.29 0.550024 152.05 7.17002 137.53 19.27C122.54 6.87665 103.71 0.0756691 84.26 0.0300293H84.19C61.8844 0.0485146 40.4962 8.91072 24.7144 24.6738C8.93262 40.4368 0.0449953 61.8145 0 84.12C0 153.78 61.56 206.69 101.82 233.83C101.82 234.61 101.74 235.4 101.74 236.19C101.74 245.613 105.483 254.65 112.146 261.314C118.81 267.977 127.847 271.72 137.27 271.72C146.693 271.72 155.73 267.977 162.393 261.314C169.057 254.65 172.8 245.613 172.8 236.19C172.8 235.54 172.8 234.89 172.75 234.24C211.52 208.26 269.99 158.51 274.85 92.9ZM192.85 146.65C184.26 146.954 175.697 145.524 167.672 142.447C159.647 139.369 152.324 134.707 146.14 128.738C139.956 122.769 135.037 115.615 131.678 107.703C128.319 99.7921 126.588 91.2851 126.588 82.69C126.588 74.095 128.319 65.588 131.678 57.6766C135.037 49.7652 139.956 42.6115 146.14 36.6423C152.324 30.673 159.647 26.0106 167.672 22.9331C175.697 19.8557 184.26 18.4262 192.85 18.73H193.21C210.171 19.3153 226.243 26.4577 238.044 38.654C249.845 50.8503 256.454 67.1492 256.48 84.12C256.48 86.32 256.4 88.5 256.26 90.67C254.308 106.123 246.788 120.333 235.11 130.638C223.431 140.944 208.395 146.637 192.82 146.65H192.85ZM137.31 253.12C132.847 253.112 128.569 251.335 125.415 248.178C122.26 245.022 120.485 240.743 120.48 236.28C120.477 234.866 120.655 233.458 121.01 232.09V232.09C121.043 231.998 121.069 231.905 121.09 231.81C121.2 231.41 121.33 231.02 121.46 230.63C121.464 230.597 121.464 230.563 121.46 230.53C121.59 230.17 121.74 229.82 121.9 229.47L122.05 229.12C122.2 228.81 122.36 228.51 122.52 228.21L122.76 227.79C122.89 227.58 123.01 227.37 123.15 227.16C123.29 226.95 123.41 226.76 123.55 226.57L123.94 226.05C124.05 225.91 124.16 225.76 124.27 225.63C124.38 225.5 124.67 225.15 124.88 224.92L125.23 224.56C125.43 224.35 125.64 224.15 125.85 223.95L126.19 223.65L126.88 223.08L127.13 222.88C127.43 222.65 127.74 222.44 128.06 222.23C128.123 222.181 128.19 222.137 128.26 222.1C128.973 221.64 129.722 221.238 130.5 220.9H130.56C130.95 220.73 131.36 220.57 131.77 220.43H131.86C132.685 220.148 133.531 219.931 134.39 219.78H134.53C134.94 219.71 135.35 219.66 135.77 219.62H135.99C136.41 219.62 136.84 219.56 137.27 219.56C137.7 219.56 138.13 219.56 138.56 219.62H138.8C139.21 219.62 139.61 219.71 140 219.78H140.27C140.64 219.85 141.01 219.93 141.37 220.02L141.59 220.08C141.92 220.16 142.25 220.26 142.59 220.37L142.98 220.51L143.9 220.86L144.42 221.1L144.87 221.32C145.22 221.5 145.56 221.68 145.87 221.88L146.05 221.99C148.762 223.654 150.949 226.049 152.36 228.9L152.47 229.12C152.57 229.33 152.67 229.54 152.76 229.75C152.85 229.96 152.99 230.32 153.1 230.61L153.25 231.07C153.35 231.38 153.45 231.7 153.54 232.07C153.91 233.48 154.098 234.932 154.1 236.39C154.066 240.827 152.284 245.071 149.141 248.203C145.998 251.335 141.747 253.102 137.31 253.12V253.12ZM166.5 215.99C163.009 210.983 158.288 206.961 152.79 204.31L152.65 204.24C152.22 204.03 151.77 203.83 151.33 203.64L150.85 203.43L149.66 202.96L148.93 202.71L147.88 202.36C147.3 202.17 146.71 202.01 146.12 201.86L145.42 201.69C145 201.6 144.58 201.5 144.15 201.42L143.4 201.28C142.98 201.21 142.56 201.14 142.13 201.09L141.39 200.99L140 200.86L139.36 200.81C138.68 200.81 138 200.75 137.36 200.75C136.72 200.75 136 200.75 135.36 200.81L134.8 200.86C134.3 200.86 133.8 200.94 133.3 200.99L132.74 201.07C132.22 201.13 131.74 201.21 131.19 201.3L130.76 201.38C130.13 201.5 129.51 201.64 128.89 201.79H128.83C127.474 202.134 126.138 202.554 124.83 203.05V203.05C124.21 203.29 123.6 203.54 123 203.81L122.79 203.9C122.23 204.16 121.68 204.42 121.14 204.7L120.93 204.81C119.738 205.437 118.583 206.132 117.47 206.89L117.19 207.09C116.77 207.38 116.36 207.68 115.95 207.99L115.34 208.47L114.31 209.12L113.6 209.73L112.95 210.33L112.17 211.07L111.85 211.41C111.2 212.07 110.59 212.75 109.99 213.46C109.99 213.53 109.88 213.59 109.82 213.66C109.54 214 109.26 214.36 108.99 214.71L108.67 215.14C108.55 215.31 108.41 215.47 108.29 215.64C71.31 190 18.7 143.12 18.7 84.12C18.7212 66.7637 25.626 50.1245 37.8997 37.8527C50.1734 25.5808 66.8137 18.6785 84.17 18.66V18.66C99.4748 18.7169 114.274 24.142 125.99 33.99C115.016 48.9824 109.415 67.2359 110.091 85.8033C110.767 104.371 117.681 122.168 129.717 136.323C141.753 150.477 158.208 160.162 176.425 163.814C194.642 167.466 213.559 164.872 230.12 156.45C211.64 181.61 186.73 201.93 166.46 215.94L166.5 215.99ZM227.64 82.74C227.64 85.2198 226.655 87.598 224.901 89.3515C223.148 91.1049 220.77 92.09 218.29 92.09H202.17V108.12C202.091 110.548 201.07 112.85 199.324 114.54C197.579 116.229 195.244 117.174 192.815 117.174C190.386 117.174 188.051 116.229 186.306 114.54C184.56 112.85 183.539 110.548 183.46 108.12V92.04H167.38C164.9 92.04 162.522 91.0549 160.769 89.3015C159.015 87.548 158.03 85.1698 158.03 82.69C158.03 80.2103 159.015 77.832 160.769 76.0786C162.522 74.3251 164.9 73.34 167.38 73.34H183.46V57.26C183.539 54.8319 184.56 52.5297 186.306 50.8401C188.051 49.1505 190.386 48.2059 192.815 48.2059C195.244 48.2059 197.579 49.1505 199.324 50.8401C201.07 52.5297 202.091 54.8319 202.17 57.26V73.34H218.25C219.478 73.34 220.694 73.5819 221.828 74.0518C222.962 74.5216 223.993 75.2104 224.861 76.0786C225.73 76.9468 226.418 77.9775 226.888 79.1119C227.358 80.2463 227.6 81.4622 227.6 82.69L227.64 82.74Z" fill="white"/>
</svg>
